# xmcd
#
# Track frame offsets:
#	150
#	16009
#	41476
#	54614
#	76022
#	87763
#	101849
#	121141
#	136060
#	150675
#	170163
#	187540
#	209038
#	219402
#	239387
#	262762
#	277205
#	293191
#	318425
#	335859
#
# Disc length: 4699
#
# Revision: 3
# Processed by: cddbd v1.5.1PL0 Copyright (c) Steve Scherf et al.
# Submitted via: audiograbber 1.83.01
# Normalized: r2:DSETVAR1
#
DISCID=1a125914
DTITLE=Various Artist - Be My Love - 40 Timeless Love Songs - Disc 1
DYEAR=2005
DGENRE=Ballad
TTITLE0=Mario Lanza - Be My Love
TTITLE1=Russell Watson - Caruso
TTITLE2=Luciano Pavarotti - Non Ti Scordar Di Me
TTITLE3=Lesley Garrett - Tonight
TTITLE4=Andrea Bocelli - Barcarolle
TTITLE5=Prague Philharmonia - Moon River
TTITLE6=Hayley Westenra - My Heart And I
TTITLE7=Katherine Jenkins - O Sole Mio
TTITLE8=Patrizio Buanne - Come Prima
TTITLE9=Jose Carreras - Memory
TTITLE10=Russell Watson - Volare
TTITLE11=Tito Beltran - Where Do I Begin
TTITLE12=Placido Domingo - Because
TTITLE13=Robert Meadmore - Apres Un Reve
TTITLE14=Renee Fleming And Bryn Terfel - All I Ask Of You
TTITLE15=Julie Andrews - Hello Young Lovers
TTITLE16=Luciano Pavarotti - Mamma
TTITLE17=Sissel - Softly Awakes My Heart
TTITLE18=Placido Domingo - Granada
TTITLE19=Sarah Brightman - Guardami (With One Look)
EXTD=
EXTT0=
EXTT1=
EXTT2=
EXTT3=
EXTT4=
EXTT5=
EXTT6=
EXTT7=
EXTT8=
EXTT9=
EXTT10=
EXTT11=
EXTT12=
EXTT13=
EXTT14=
EXTT15=
EXTT16=
EXTT17=
EXTT18=
EXTT19=
PLAYORDER=
